<?xml version="1.0" standalone="no"?><!DOCTYPE svg PUBLIC "-//W3C//DTD SVG 1.1//EN" "http://www.w3.org/Graphics/SVG/1.1/DTD/svg11.dtd"><svg t="1559108906440" class="icon" style="" viewBox="0 0 1024 1024" version="1.1" xmlns="http://www.w3.org/2000/svg" p-id="1386" xmlns:xlink="http://www.w3.org/1999/xlink" width="200" height="200"><defs><style type="text/css"></style></defs><path d="M 564.537 1070.97 Z M 852.63 627.731 c -90.532 -0.439 -532.486 0.634 -662.898 0 c -66.165 22.421 -107.268 119.764 -25.618 172.929 c 5.423 3.538 12.358 5.865 20.093 7.783 c 18.182 4.513 135.786 1.828 162.445 1.821 c 87.621 -0.551 424.957 -2.692 505.977 -3.199 c 25.151 -9.162 51.22 -39.235 57.647 -67.249 c 12.845 -56.033 -25.133 -99.996 -57.647 -112.082 Z M 852.63 426.889 c -90.532 -0.439 -532.486 -2.57 -662.898 -3.199 c -66.165 22.421 -107.268 119.58 -25.618 172.743 c 5.423 3.538 12.358 5.865 20.093 7.783 c 18.182 4.513 135.786 5.212 162.445 5.21 c 87.621 -0.551 424.957 -2.692 505.977 -3.199 c 25.151 -9.162 51.22 -39.235 57.647 -67.249 c 12.845 -56.032 -25.133 -99.995 -57.647 -112.082 Z M 164.117 395.356 c 5.423 3.538 12.358 5.865 20.093 7.783 c 18.182 4.513 135.786 5.45 162.445 5.443 c 87.621 -0.551 424.957 0.513 505.977 0 c 25.151 -9.162 51.22 -42.441 57.647 -70.454 c 12.845 -56.033 -25.133 -99.996 -57.647 -112.082 c -90.532 -0.439 -532.486 -2.57 -662.898 -3.199 c -66.165 22.426 -107.268 119.345 -25.618 172.511 Z" p-id="1387"></path></svg>